# xmcd
#
# Track frame offsets: 
#        150
#        17287
#        33917
#        52445
#        66532
#        83710
#        98952
#        114302
#        129072
#        145822
#        157675
#        173022
#        190562
#        215612
#
# Disc length: 2976 seconds
#
# Revision: 1
# Processed by: cddbd v1.5.2PL0 Copyright (c) Steve Scherf et al.
# Submitted via: ExactAudioCopy v0.99pb5
#
DISCID=b00b9e0e
DTITLE=Raven-Symoné - Raven-Symoné
DYEAR=2008
DGENRE=Pop
TTITLE0=That Girl
TTITLE1=Anti-Love Song
TTITLE2=In The Pictures
TTITLE3=What Are You Gonna Do?
TTITLE4=Green
TTITLE5=Love Me or Leave Me
TTITLE6=In Your Skin
TTITLE7=Stupid
TTITLE8=Girl Get It
TTITLE9=Keep a Friend
TTITLE10=Shorts Like Me
TTITLE11=Hollywood Life
TTITLE12=Double Dutch Bus
TTITLE13=Data Track
EXTD=
EXTT0=
EXTT1=
EXTT2=
EXTT3=
EXTT4=
EXTT5=
EXTT6=
EXTT7=
EXTT8=
EXTT9=
EXTT10=
EXTT11=
EXTT12=
EXTT13=
PLAYORDER=
